PathFileType	4	(X/Y/Z)	Kaydara	
DataRate	CameraRate	NumFrames	NumMarkers	Units	OrigDataRate	OrigDataStartFrame	OrigNumFrames	
60.00	60.00	4	74	mm	60.00	343	140	
Frame#	Time	Z_lasi			Z_rasi			Z_rpsi			Z_lpsi			Z_fneck			Z_fhead			Z_rhead			Z_lhead			Z_rshld			Z_relbtop			Z_relblow			Z_rwrext			Z_rwrtop			Z_rwrlow			Z_lshld			Z_lelbext			Z_lelblow			Z_lelbtop			Z_lwrext			Z_lwrtop			Z_lwrlow			Z_rtopleg			Z_ltopleg			Z_rkneefr			Z_rkneebk			Z_rkneeis			Z_lkneefr			Z_lknssbk			Z_lkneeis			Z_rankfr			Z_rankis			Z_rankbk			Z_lankfr			Z_lankbk			Z_lankis			N_lasi			N_rasi			N_rpsi			N_lpsi			N_fneck			N_bneck			N_fhead			N_rhead			N_lhead			N_rshld			N_relbtop			N_relbext			N_relblow			N_rwrext			N_rwrtop			N_rwrlow			N_lshld			N_lelbext			N_lelblow			N_lelbtop			N_lwrext			N_lwrtop			N_lwrlow			N_rtopleg			N_rkneefr			N_rkneebk			N_rkneeis			N_lkneefr			N_lknssbk			N_lkneeis			N_rankfr			N_rankis			N_rankbk			N_lankfr			N_lankbk			N_lankis			Z_relbext			Z_bneck			N_ltopleg			
		X1	Y1	Z1	X2	Y2	Z2	X3	Y3	Z3	X4	Y4	Z4	X5	Y5	Z5	X6	Y6	Z6	X7	Y7	Z7	X8	Y8	Z8	X9	Y9	Z9	X10	Y10	Z10	X11	Y11	Z11	X12	Y12	Z12	X13	Y13	Z13	X14	Y14	Z14	X15	Y15	Z15	X16	Y16	Z16	X17	Y17	Z17	X18	Y18	Z18	X19	Y19	Z19	X20	Y20	Z20	X21	Y21	Z21	X22	Y22	Z22	X23	Y23	Z23	X24	Y24	Z24	X25	Y25	Z25	X26	Y26	Z26	X27	Y27	Z27	X28	Y28	Z28	X29	Y29	Z29	X30	Y30	Z30	X31	Y31	Z31	X32	Y32	Z32	X33	Y33	Z33	X34	Y34	Z34	X35	Y35	Z35	X36	Y36	Z36	X37	Y37	Z37	X38	Y38	Z38	X39	Y39	Z39	X40	Y40	Z40	X41	Y41	Z41	X42	Y42	Z42	X43	Y43	Z43	X44	Y44	Z44	X45	Y45	Z45	X46	Y46	Z46	X47	Y47	Z47	X48	Y48	Z48	X49	Y49	Z49	X50	Y50	Z50	X51	Y51	Z51	X52	Y52	Z52	X53	Y53	Z53	X54	Y54	Z54	X55	Y55	Z55	X56	Y56	Z56	X57	Y57	Z57	X58	Y58	Z58	X59	Y59	Z59	X60	Y60	Z60	X61	Y61	Z61	X62	Y62	Z62	X63	Y63	Z63	X64	Y64	Z64	X65	Y65	Z65	X66	Y66	Z66	X67	Y67	Z67	X68	Y68	Z68	X69	Y69	Z69	X70	Y70	Z70	X71	Y71	Z71	X72	Y72	Z72	X73	Y73	Z73	X74	Y74	Z74	

123	5.700	-1662.17896	1014.37714	768.93562	-1477.85370	1016.91376	637.25670	-1350.95413	1066.18362	844.38217	-1563.13171	1068.60466	955.04486	-1528.29697	1505.41183	721.78001	-1484.54956	1745.93933	675.53574	-1438.73108	1686.21262	834.78729	-1589.02481	1720.13397	807.49344	-1316.87210	1469.85947	713.04802	-1218.59970	1164.10118	697.98988	-1282.95914	1166.25092	660.37445	-1264.22180	918.83141	611.40846	-1285.78705	936.46027	568.42773	-1331.18149	939.50035	580.69801	-1720.55084	1463.69705	897.38464	-1753.97278	1113.55644	934.22005	-1735.30212	1187.45300	882.73827	-1785.84259	1195.52811	943.69835	-1745.34897	1114.07478	718.99399	-1763.85971	1162.41806	706.51039	-1721.07361	1185.14091	710.53642	-1320.77988	891.00212	685.58228	-1679.83536	898.26546	897.82585	-1422.60498	460.22446	601.38683	-1352.80579	484.26888	695.63805	-1465.08728	453.69732	708.27057	-1612.61093	440.44060	851.83235	-1625.03845	480.23766	951.73615	-1513.61389	459.00360	899.42513	-1395.37857	156.96430	609.93671	-1427.61887	153.19355	673.91876	-1348.75061	151.46917	656.61049	-1616.16013	129.86053	942.66785	-1528.98758	137.36513	982.82921	-1552.74734	133.12066	913.04382	-1349.11804	1001.98212	-267.47936	-1563.84354	1010.25017	-164.18713	-1621.67572	1069.91287	-351.73210	-1449.00620	1055.98854	-435.69275	-1446.14563	1476.84219	-216.41764	-1477.64114	1526.26297	-324.15115	-1469.04694	1651.19766	-127.53000	-1530.62958	1643.61450	-309.50546	-1400.52155	1639.15024	-302.87220	-1684.42581	1416.31348	-208.80074	-1761.19797	1124.58565	-219.06094	-1733.16605	1099.76646	-278.66714	-1693.01651	1113.96675	-198.29350	-1750.88745	856.51230	-191.07008	-1748.04199	862.87399	-146.11418	-1700.72693	868.14919	-146.37710	-1291.14822	1413.84644	-389.57397	-1327.54013	1095.42442	-387.95860	-1243.68515	1121.09253	-373.58967	-1276.47690	1089.88533	-442.42901	-1222.32399	892.24098	-346.52897	-1211.86775	906.96365	-308.26603	-1254.58763	906.62437	-291.94450	-1656.16669	901.09077	-218.73871	-1602.36588	425.04547	-153.77178	-1676.10657	463.92036	-191.61526	-1577.79510	440.16083	-247.19332	-1400.40939	429.28345	-325.35572	-1390.26016	456.14941	-408.81634	-1501.66733	454.87705	-362.60941	-1664.29703	171.80450	-202.58076	-1651.27869	170.84909	-281.23077	-1718.54752	174.87106	-255.79430	-1426.29883	176.51960	-434.85706	-1493.31802	177.48764	-433.85326	-1464.22958	178.96517	-366.12522	-1306.56982	1146.23505	728.77083	-1589.41071	1586.51138	825.99190	-1340.36942	937.92358	-381.93577 
124	5.717	-1660.51575	1014.05876	762.53769	-1475.91064	1017.40456	631.43757	-1350.37811	1067.01614	837.22824	-1562.34772	1067.58774	949.08890	-1523.97980	1505.56122	717.70081	-1478.15918	1745.00702	669.44748	-1433.37891	1686.13831	831.58745	-1583.42377	1721.37756	801.20399	-1312.77695	1468.63602	710.63522	-1216.54030	1162.51404	697.56531	-1280.07645	1164.47487	658.79349	-1261.10596	916.46393	611.90929	-1282.20215	933.63281	568.64979	-1327.53326	936.84685	580.19703	-1718.31467	1466.06720	890.96794	-1754.29581	1116.56326	925.51132	-1735.62515	1190.45998	874.02962	-1786.16562	1198.53500	934.98970	-1737.11090	1121.96457	710.81253	-1755.39581	1170.53894	698.89519	-1712.89001	1193.24806	705.23354	-1318.18939	892.09755	679.93301	-1678.64136	897.37251	891.12701	-1419.81232	460.13069	601.86729	-1349.67438	484.41837	695.67825	-1461.99982	454.15222	708.70361	-1612.78717	439.30080	845.42221	-1625.11688	480.01240	944.92302	-1513.73322	458.29399	892.72179	-1394.46106	156.77971	609.98310	-1426.62827	153.15753	674.05045	-1347.80746	150.83574	656.59775	-1615.98801	129.74698	941.15700	-1528.86749	137.99497	981.17126	-1552.64389	132.66492	911.57272	-1345.04272	1000.89325	-270.55914	-1561.11710	1009.43222	-169.88867	-1616.43906	1069.01451	-358.33771	-1442.67792	1055.16075	-439.84962	-1440.78979	1475.35370	-217.71755	-1471.15997	1525.09918	-325.90263	-1463.59680	1649.85413	-128.79237	-1524.64859	1642.35428	-310.99606	-1394.29214	1637.92526	-303.88187	-1679.74915	1415.23804	-213.84987	-1757.56485	1123.82156	-226.24710	-1728.72818	1098.74657	-285.19024	-1689.51538	1113.51501	-204.47346	-1745.01617	856.23001	-194.01003	-1742.13379	863.43132	-149.14747	-1694.63730	868.90152	-149.80397	-1284.49036	1412.19818	-389.40800	-1319.07135	1094.62975	-389.60159	-1236.89720	1119.73816	-374.82960	-1268.46901	1088.98376	-444.53762	-1215.83801	890.72548	-348.75023	-1206.23924	905.24307	-310.24054	-1249.26598	904.67888	-294.83694	-1652.15973	900.42648	-223.79436	-1597.40295	426.04210	-145.40291	-1670.14618	465.34798	-184.59373	-1571.06155	440.47634	-238.39420	-1400.63141	428.97972	-329.24324	-1389.70627	455.15171	-412.52064	-1501.79855	454.97971	-367.10533	-1661.00754	173.45135	-198.85511	-1646.39923	173.39958	-277.42468	-1714.44641	177.34894	-253.06217	-1426.12762	175.63927	-436.41590	-1493.14514	176.56506	-435.54535	-1464.39056	178.73743	-367.73720	-1304.18243	1144.77318	727.70187	-1585.09369	1586.66061	821.91269	-1335.44830	936.65108	-385.29205 
125	5.733	-1658.91510	1013.21465	755.86128	-1473.55896	1017.58026	625.54920	-1349.18976	1067.70020	831.81358	-1561.72806	1066.54831	942.94975	-1519.61716	1505.36270	713.42888	-1471.61438	1743.45901	662.82951	-1427.84485	1686.38306	825.70862	-1577.50900	1722.56226	794.47624	-1308.58032	1467.03827	708.29407	-1214.20258	1160.39734	696.67671	-1277.16232	1162.38312	657.15012	-1258.33405	913.75778	612.39616	-1278.34290	930.56725	568.25890	-1323.97781	934.16359	579.40418	-1715.72098	1467.93762	884.81346	-1754.65683	1119.29855	916.58401	-1735.98618	1193.19527	865.10231	-1786.52679	1201.27029	926.06239	-1728.62411	1129.30923	702.87392	-1746.72195	1178.08563	691.53198	-1704.47510	1200.38872	700.19325	-1315.46722	893.20183	675.17693	-1677.40540	896.23672	884.11407	-1416.68228	460.14709	602.00325	-1346.36215	484.49642	695.69237	-1458.98468	454.74495	708.85010	-1613.39752	438.01006	838.84560	-1625.08987	479.75994	937.69806	-1514.21936	457.52056	885.91118	-1393.54553	156.58998	610.05970	-1425.59464	153.16489	674.14894	-1346.83182	150.54008	656.54457	-1615.94513	129.91231	939.75815	-1528.84125	138.53089	979.64607	-1552.49313	132.38351	909.67979	-1341.08444	999.57695	-273.50988	-1558.78998	1008.63579	-175.60291	-1611.32690	1068.07640	-365.07240	-1436.51901	1054.18495	-444.03526	-1435.35294	1473.71353	-219.34916	-1464.90997	1524.04587	-327.59335	-1458.14056	1648.30017	-130.19839	-1518.69553	1641.08841	-312.57792	-1388.45612	1636.46912	-305.16148	-1675.23483	1414.07837	-218.99439	-1753.67615	1122.98103	-233.03848	-1724.12094	1097.54570	-291.35630	-1686.64520	1113.48259	-208.29733	-1738.64273	855.75760	-196.48027	-1736.22147	864.01466	-151.69213	-1689.07669	870.09727	-152.04705	-1277.96310	1410.44266	-389.46827	-1311.35788	1093.19603	-391.22631	-1230.39108	1118.13187	-376.12926	-1260.67833	1087.81784	-446.39992	-1209.54262	889.03427	-351.21113	-1200.55344	903.28964	-312.47105	-1243.84537	902.67387	-297.69640	-1648.40775	899.83528	-228.85780	-1592.42096	427.51934	-137.14488	-1664.27643	467.26170	-177.64359	-1565.40451	441.46965	-231.50711	-1401.08276	428.92773	-333.18657	-1389.42245	454.41624	-416.46957	-1501.86188	455.08427	-371.11897	-1657.52823	175.63494	-195.02930	-1641.23856	176.35172	-272.86243	-1709.20593	181.34125	-249.68615	-1426.08124	174.80015	-437.92759	-1493.14407	175.78526	-437.13707	-1464.52988	178.67172	-369.29916	-1301.64032	1142.88887	726.36978	-1580.73090	1586.46194	817.64076	-1330.25986	935.70290	-389.56856 
126	5.750	-1657.09534	1012.25517	748.83278	-1470.83847	1017.75032	619.64439	-1347.65717	1068.47794	827.62253	-1561.33087	1065.51743	936.78055	-1515.11581	1504.83856	709.06815	-1464.98489	1741.49826	655.63400	-1422.46277	1686.49033	819.47075	-1571.45828	1723.67508	787.32216	-1304.31824	1465.11475	705.93674	-1211.82823	1157.86804	695.79994	-1274.18480	1160.11238	655.66109	-1255.52910	911.01746	612.50938	-1274.58122	927.54456	567.84714	-1320.44922	931.54152	578.19454	-1713.17688	1469.43451	878.81264	-1754.94263	1121.69235	907.40128	-1736.27197	1195.58907	855.91949	-1786.81259	1203.66409	916.87958	-1720.27100	1136.00212	695.41901	-1737.98004	1184.94728	684.46167	-1696.14960	1206.98090	695.30319	-1312.39426	893.87199	671.89842	-1676.02234	895.07446	876.87881	-1413.64929	460.07671	601.68354	-1343.27988	484.48879	695.31364	-1456.06918	455.27702	708.67989	-1613.91785	436.69521	832.00218	-1625.69656	479.49940	930.51758	-1514.98322	456.80721	878.64754	-1392.52304	156.48098	609.96559	-1424.64249	153.38131	674.08638	-1345.72723	150.14922	656.37047	-1615.93567	130.13288	938.38791	-1528.95996	139.25463	978.12294	-1552.50717	132.37745	907.87201	-1337.34070	998.50235	-276.39505	-1556.57455	1007.82883	-181.16568	-1606.48376	1067.23366	-371.65192	-1430.77225	1053.25447	-448.07346	-1430.41534	1472.15408	-220.91040	-1459.03778	1523.17657	-328.88809	-1452.98019	1646.77399	-131.49957	-1512.84302	1639.93378	-314.19003	-1382.64359	1635.14526	-306.14044	-1670.95810	1413.05786	-224.11621	-1749.59335	1122.04643	-239.38171	-1719.18503	1096.10321	-296.99570	-1682.54501	1113.09906	-213.56142	-1731.94260	855.40245	-198.54597	-1730.26489	864.60297	-153.84935	-1683.20099	871.27747	-153.70721	-1271.83899	1408.64014	-389.41490	-1304.36996	1091.81450	-392.88677	-1224.13383	1116.59752	-377.35161	-1253.50868	1086.73187	-448.21609	-1203.53065	887.24846	-353.85742	-1194.97925	901.27502	-314.76986	-1238.24570	900.57465	-300.60354	-1644.80347	899.15115	-233.71464	-1587.48001	429.52915	-129.18993	-1658.31818	469.69746	-170.57407	-1558.35541	442.86194	-222.19362	-1400.97275	428.86211	-336.32561	-1389.48349	453.83080	-420.58537	-1502.52731	455.60158	-375.53902	-1653.79486	178.41436	-190.66645	-1636.12366	179.89590	-268.41208	-1704.91364	185.04004	-246.62800	-1426.18591	174.12344	-439.37984	-1493.28415	174.92035	-438.57548	-1464.55185	178.60371	-370.99422	-1299.04831	1140.70854	725.12070	-1576.22971	1585.93811	813.28003	-1326.32736	934.32495	-393.08407 
